<svg width="177" height="177" viewBox="0 0 177 177" fill="none" xmlns="http://www.w3.org/2000/svg">
<g opacity="0.5" clip-path="url(#clip0_248_1742)">
<path opacity="0.5" d="M136.546 77.7764L150.301 137.422L54.9759 159.454L41.2212 99.8087M102.639 148.438L82.0064 58.9699M82.0064 58.9699L55.1962 65.1665C51.2459 66.0795 47.0951 65.3842 43.657 63.2333C40.2188 61.0825 37.7749 57.6525 36.863 53.6977C35.951 49.743 36.6456 45.5876 38.794 42.1455C40.9424 38.7035 44.3686 36.2569 48.3188 35.3439C69.1712 30.5243 82.0064 58.9699 82.0064 58.9699ZM82.0064 58.9699L108.817 52.7733C112.767 51.8603 116.193 49.4137 118.342 45.9717C120.49 42.5296 121.185 38.3742 120.273 34.4195C119.361 30.4647 116.917 27.0347 113.479 24.8839C110.04 22.733 105.89 22.0377 101.939 22.9507C81.0869 27.7703 82.0064 58.9699 82.0064 58.9699ZM22.4281 72.7401L141.585 45.1997L148.462 75.0224L29.3055 102.563L22.4281 72.7401Z" stroke="#09432B" stroke-width="8" stroke-linecap="round" stroke-linejoin="round"/>
</g>
<defs>
<clipPath id="clip0_248_1742">
<rect width="146.757" height="146.906" fill="white" transform="matrix(0.974315 -0.225191 0.224711 0.974425 0.883789 33.7424)"/>
</clipPath>
</defs>
</svg>
