<svg width="224" height="119" viewBox="0 0 224 119" fill="none" xmlns="http://www.w3.org/2000/svg">
<path d="M22.48 34.58H47.08V37.79H22.48V34.58ZM30.04 51.02C30.04 51.42 30.17 51.75 30.43 52.01C30.69 52.25 31.06 52.45 31.54 52.61L32.86 53C33.64 53.28 34.03 53.8 34.03 54.56C34.03 55 33.88 55.35 33.58 55.61C33.3 55.87 32.85 56 32.23 56H14.32C13.7 56 13.24 55.87 12.94 55.61C12.64 55.35 12.49 55 12.49 54.56C12.49 53.8 12.89 53.28 13.69 53L15.01 52.61C15.51 52.45 15.88 52.25 16.12 52.01C16.36 51.75 16.48 51.42 16.48 51.02V18.98C16.48 18.58 16.36 18.26 16.12 18.02C15.88 17.76 15.51 17.55 15.01 17.39L13.69 17C12.89 16.72 12.49 16.2 12.49 15.44C12.49 15 12.64 14.65 12.94 14.39C13.24 14.13 13.7 14 14.32 14H32.23C32.85 14 33.3 14.13 33.58 14.39C33.88 14.65 34.03 15 34.03 15.44C34.03 16.2 33.64 16.72 32.86 17L31.54 17.39C31.06 17.55 30.69 17.76 30.43 18.02C30.17 18.26 30.04 18.58 30.04 18.98V51.02ZM55.63 51.02C55.63 51.42 55.75 51.75 55.99 52.01C56.25 52.25 56.62 52.45 57.1 52.61L58.45 53C59.23 53.28 59.62 53.8 59.62 54.56C59.62 55 59.47 55.35 59.17 55.61C58.89 55.87 58.43 56 57.79 56H39.91C39.29 56 38.83 55.87 38.53 55.61C38.23 55.35 38.08 55 38.08 54.56C38.08 53.8 38.48 53.28 39.28 53L40.6 52.61C41.1 52.45 41.47 52.25 41.71 52.01C41.95 51.75 42.07 51.42 42.07 51.02V18.98C42.07 18.58 41.95 18.26 41.71 18.02C41.47 17.76 41.1 17.55 40.6 17.39L39.28 17C38.48 16.72 38.08 16.2 38.08 15.44C38.08 15 38.23 14.65 38.53 14.39C38.83 14.13 39.29 14 39.91 14H57.79C58.43 14 58.89 14.13 59.17 14.39C59.47 14.65 59.62 15 59.62 15.44C59.62 16.2 59.23 16.72 58.45 17L57.1 17.39C56.62 17.55 56.25 17.76 55.99 18.02C55.75 18.26 55.63 18.58 55.63 18.98V51.02ZM80.8984 52.34V51.74L80.0584 51.89V31.67C80.0584 30.91 79.8584 30.31 79.4584 29.87C79.0784 29.43 78.5584 29.21 77.8984 29.21C77.3384 29.21 76.8584 29.36 76.4584 29.66C76.0584 29.96 75.8584 30.37 75.8584 30.89V34.13C75.8584 35.71 75.3084 36.98 74.2084 37.94C73.1084 38.88 71.5684 39.35 69.5884 39.35C68.0284 39.35 66.8284 38.99 65.9884 38.27C65.1684 37.55 64.7584 36.52 64.7584 35.18C64.7584 33.92 65.3084 32.67 66.4084 31.43C67.5284 30.17 69.2084 29.12 71.4484 28.28C73.7084 27.44 76.5284 27.02 79.9084 27.02C84.0084 27.02 87.0584 27.78 89.0584 29.3C91.0784 30.82 92.0884 32.94 92.0884 35.66V50.18C92.0884 50.6 92.1784 50.93 92.3584 51.17C92.5584 51.41 92.8484 51.53 93.2284 51.53C93.5484 51.53 93.8284 51.43 94.0684 51.23C94.3084 51.03 94.4984 50.77 94.6384 50.45C94.7384 50.33 94.8384 50.23 94.9384 50.15C95.0584 50.07 95.1884 50.03 95.3284 50.03C95.5884 50.03 95.7684 50.12 95.8684 50.3C95.9884 50.48 96.0484 50.71 96.0484 50.99C96.0484 51.73 95.7484 52.55 95.1484 53.45C94.5684 54.35 93.6684 55.13 92.4484 55.79C91.2484 56.43 89.7084 56.75 87.8284 56.75C85.6684 56.75 83.9684 56.33 82.7284 55.49C81.5084 54.63 80.8984 53.58 80.8984 52.34ZM63.4684 49.73C63.4684 47.11 64.6284 45.04 66.9484 43.52C69.2684 42 72.7084 41.24 77.2684 41.24C78.3684 41.24 79.2884 41.33 80.0284 41.51C80.7884 41.67 81.4284 41.91 81.9484 42.23L81.1684 44.03C80.7284 43.79 80.3084 43.62 79.9084 43.52C79.5284 43.42 79.0984 43.37 78.6184 43.37C77.6784 43.37 76.9284 43.74 76.3684 44.48C75.8284 45.22 75.5584 46.32 75.5584 47.78C75.5584 49.22 75.8284 50.3 76.3684 51.02C76.9284 51.74 77.6584 52.1 78.5584 52.1C79.0984 52.1 79.6184 51.96 80.1184 51.68C80.6184 51.38 80.9984 51.02 81.2584 50.6L81.8884 52.28C80.9684 53.72 79.6384 54.83 77.8984 55.61C76.1784 56.37 74.3284 56.75 72.3484 56.75C69.7084 56.75 67.5684 56.09 65.9284 54.77C64.2884 53.43 63.4684 51.75 63.4684 49.73ZM112.361 12.62V51.17C112.361 51.81 112.421 52.28 112.541 52.58C112.661 52.86 112.861 53.05 113.141 53.15L113.981 53.45C114.321 53.59 114.561 53.77 114.701 53.99C114.861 54.19 114.941 54.44 114.941 54.74C114.941 55.12 114.811 55.43 114.551 55.67C114.311 55.89 113.911 56 113.351 56H99.3114C98.7514 56 98.3414 55.89 98.0814 55.67C97.8414 55.43 97.7214 55.12 97.7214 54.74C97.7214 54.44 97.7914 54.19 97.9314 53.99C98.0714 53.77 98.3214 53.59 98.6814 53.45L99.4914 53.15C99.7914 53.05 99.9914 52.86 100.091 52.58C100.211 52.28 100.271 51.81 100.271 51.17V18.38C100.271 17.92 100.201 17.59 100.061 17.39C99.9414 17.17 99.7314 17.03 99.4314 16.97L98.5914 16.82C98.2714 16.72 98.0414 16.58 97.9014 16.4C97.7614 16.22 97.6914 15.98 97.6914 15.68C97.6914 15.34 97.7814 15.07 97.9614 14.87C98.1614 14.67 98.5114 14.47 99.0114 14.27L107.261 11.51C108.061 11.21 108.681 11 109.121 10.88C109.561 10.76 109.961 10.7 110.321 10.7C111.001 10.7 111.511 10.88 111.851 11.24C112.191 11.6 112.361 12.06 112.361 12.62ZM133.848 26.96C137.068 26.96 139.888 27.59 142.308 28.85C144.728 30.11 146.618 31.87 147.978 34.13C149.338 36.39 150.018 39.01 150.018 41.99C150.018 44.79 149.308 47.31 147.888 49.55C146.468 51.77 144.508 53.53 142.008 54.83C139.528 56.11 136.648 56.75 133.368 56.75C130.168 56.75 127.348 56.12 124.908 54.86C122.488 53.6 120.598 51.85 119.238 49.61C117.898 47.35 117.228 44.76 117.228 41.84C117.228 39 117.938 36.46 119.358 34.22C120.778 31.98 122.738 30.21 125.238 28.91C127.738 27.61 130.608 26.96 133.848 26.96ZM135.888 53.69C136.628 53.53 137.188 52.99 137.568 52.07C137.968 51.13 138.148 49.77 138.108 47.99C138.068 46.19 137.788 43.92 137.268 41.18C136.788 38.5 136.238 36.32 135.618 34.64C135.018 32.94 134.358 31.71 133.638 30.95C132.938 30.19 132.188 29.9 131.388 30.08C130.648 30.24 130.088 30.79 129.708 31.73C129.328 32.65 129.158 34 129.198 35.78C129.238 37.56 129.508 39.83 130.008 42.59C130.508 45.25 131.058 47.43 131.658 49.13C132.278 50.83 132.938 52.05 133.638 52.79C134.358 53.53 135.108 53.83 135.888 53.69ZM29.8 104.81C28.34 104.81 27.09 104.63 26.05 104.27C25.01 103.91 24.16 103.55 23.5 103.19C22.86 102.83 22.34 102.65 21.94 102.65C21.56 102.65 21.16 102.77 20.74 103.01C20.34 103.25 19.93 103.53 19.51 103.85C19.09 104.15 18.67 104.41 18.25 104.63C17.83 104.87 17.44 104.99 17.08 104.99C16.62 104.99 16.22 104.85 15.88 104.57C15.56 104.29 15.34 103.84 15.22 103.22L13.42 91.4C13.36 90.96 13.42 90.59 13.6 90.29C13.8 89.97 14.11 89.74 14.53 89.6C15.01 89.42 15.43 89.42 15.79 89.6C16.15 89.78 16.47 90.14 16.75 90.68C18.33 93.62 19.8 95.89 21.16 97.49C22.52 99.07 23.82 100.16 25.06 100.76C26.3 101.36 27.54 101.66 28.78 101.66C30.52 101.66 31.91 101.24 32.95 100.4C33.99 99.56 34.51 98.32 34.51 96.68C34.51 95.56 34.26 94.58 33.76 93.74C33.28 92.9 32.36 92.12 31 91.4C29.64 90.66 27.67 89.9 25.09 89.12C21.91 88.14 19.35 86.98 17.41 85.64C15.49 84.3 14.1 82.72 13.24 80.9C12.38 79.06 11.95 76.91 11.95 74.45C11.95 71.89 12.59 69.62 13.87 67.64C15.15 65.64 16.97 64.08 19.33 62.96C21.69 61.84 24.45 61.28 27.61 61.28C29.17 61.28 30.49 61.43 31.57 61.73C32.67 62.01 33.59 62.3 34.33 62.6C35.09 62.9 35.72 63.05 36.22 63.05C36.68 63.05 37.17 62.89 37.69 62.57C38.21 62.23 38.74 61.9 39.28 61.58C39.84 61.24 40.41 61.07 40.99 61.07C41.45 61.07 41.84 61.23 42.16 61.55C42.5 61.85 42.78 62.4 43 63.2L45.91 74.54C46.05 75.08 46.03 75.55 45.85 75.95C45.67 76.35 45.35 76.63 44.89 76.79C44.43 76.95 44.01 76.94 43.63 76.76C43.27 76.56 42.97 76.23 42.73 75.77C41.05 72.81 39.42 70.51 37.84 68.87C36.28 67.21 34.76 66.06 33.28 65.42C31.82 64.76 30.4 64.43 29.02 64.43C27.44 64.43 26.18 64.92 25.24 65.9C24.32 66.86 23.86 68.12 23.86 69.68C23.86 70.74 24.09 71.7 24.55 72.56C25.01 73.42 25.89 74.25 27.19 75.05C28.49 75.83 30.39 76.66 32.89 77.54C36.09 78.64 38.64 79.85 40.54 81.17C42.46 82.49 43.84 84 44.68 85.7C45.52 87.4 45.94 89.38 45.94 91.64C45.94 94.08 45.29 96.3 43.99 98.3C42.71 100.28 40.87 101.86 38.47 103.04C36.07 104.22 33.18 104.81 29.8 104.81ZM78.483 86.9C78.483 87.9 78.203 88.68 77.643 89.24C77.103 89.78 76.313 90.05 75.273 90.05H57.153V87.74H65.253C66.113 87.74 66.543 87.33 66.543 86.51C66.543 83.47 66.223 81.3 65.583 80C64.963 78.68 64.203 78.02 63.303 78.02C62.663 78.02 62.073 78.29 61.533 78.83C61.013 79.37 60.593 80.23 60.273 81.41C59.953 82.59 59.793 84.14 59.793 86.06C59.793 89.88 60.613 92.67 62.253 94.43C63.913 96.17 66.153 97.04 68.973 97.04C70.593 97.04 71.993 96.76 73.173 96.2C74.353 95.62 75.293 94.71 75.993 93.47C76.373 93.09 76.663 92.84 76.863 92.72C77.083 92.58 77.293 92.51 77.493 92.51C77.773 92.51 77.983 92.65 78.123 92.93C78.283 93.21 78.363 93.56 78.363 93.98C78.363 95.94 77.763 97.74 76.563 99.38C75.383 101.02 73.743 102.33 71.643 103.31C69.543 104.27 67.123 104.75 64.383 104.75C61.443 104.75 58.813 104.16 56.493 102.98C54.173 101.78 52.333 100.12 50.973 98C49.633 95.86 48.963 93.37 48.963 90.53C48.963 87.37 49.593 84.63 50.853 82.31C52.113 79.97 53.933 78.16 56.313 76.88C58.693 75.6 61.543 74.96 64.863 74.96C67.803 74.96 70.283 75.48 72.303 76.52C74.343 77.56 75.883 78.98 76.923 80.78C77.963 82.56 78.483 84.6 78.483 86.9ZM101.657 100.04C104.917 100.4 107.507 100.91 109.427 101.57C111.347 102.21 112.727 103.09 113.567 104.21C114.407 105.33 114.827 106.73 114.827 108.41C114.827 111.43 113.237 113.9 110.057 115.82C106.877 117.74 102.277 118.7 96.2566 118.7C92.3166 118.7 89.2166 118.44 86.9566 117.92C84.6966 117.42 83.0966 116.7 82.1566 115.76C81.2166 114.84 80.7466 113.77 80.7466 112.55C80.7466 111.05 81.4066 109.82 82.7266 108.86C84.0666 107.92 86.4566 107.27 89.8966 106.91L90.0466 107.63C89.9066 107.79 89.7866 108.04 89.6866 108.38C89.5866 108.74 89.5366 109.12 89.5366 109.52C89.5366 111.44 90.1766 112.96 91.4566 114.08C92.7366 115.22 94.8666 115.79 97.8466 115.79C99.5266 115.79 100.847 115.67 101.807 115.43C102.787 115.21 103.487 114.86 103.907 114.38C104.327 113.9 104.537 113.29 104.537 112.55C104.537 111.87 104.257 111.3 103.697 110.84C103.137 110.38 102.167 109.99 100.787 109.67C99.4266 109.35 97.5366 109.03 95.1166 108.71C92.2566 108.37 90.0366 107.95 88.4566 107.45C86.8766 106.97 85.7666 106.35 85.1266 105.59C84.5066 104.85 84.1966 103.91 84.1966 102.77C84.1966 101.65 84.5066 100.64 85.1266 99.74C85.7666 98.82 86.8266 98.08 88.3066 97.52C89.8066 96.94 91.8466 96.6 94.4266 96.5L94.6366 96.95C94.3566 97.03 94.1266 97.16 93.9466 97.34C93.7666 97.52 93.6766 97.74 93.6766 98C93.6766 98.26 93.8266 98.5 94.1266 98.72C94.4466 98.92 95.1666 99.13 96.2866 99.35C97.4066 99.55 99.1966 99.78 101.657 100.04ZM101.417 77.51L102.227 75.53C103.207 72.97 104.487 71.02 106.067 69.68C107.647 68.34 109.417 67.67 111.377 67.67C112.957 67.67 114.207 68.12 115.127 69.02C116.067 69.92 116.537 71.17 116.537 72.77C116.537 74.21 116.167 75.36 115.427 76.22C114.707 77.08 113.727 77.51 112.487 77.51C111.667 77.51 111.017 77.33 110.537 76.97C110.077 76.61 109.677 76.19 109.337 75.71C108.997 75.21 108.627 74.78 108.227 74.42C107.827 74.06 107.287 73.88 106.607 73.88C105.887 73.88 105.307 74.15 104.867 74.69C104.427 75.23 103.947 76.19 103.427 77.57L101.417 77.51ZM112.517 85.67C112.517 87.93 111.867 89.93 110.567 91.67C109.287 93.41 107.467 94.78 105.107 95.78C102.747 96.76 99.9566 97.25 96.7366 97.25C93.5166 97.25 90.7766 96.78 88.5166 95.84C86.2566 94.9 84.5366 93.64 83.3566 92.06C82.1766 90.46 81.5866 88.7 81.5866 86.78C81.5866 84.48 82.2266 82.46 83.5066 80.72C84.7866 78.96 86.6366 77.58 89.0566 76.58C91.4766 75.58 94.3466 75.08 97.6666 75.08C100.867 75.08 103.567 75.56 105.767 76.52C107.987 77.48 109.667 78.76 110.807 80.36C111.947 81.96 112.517 83.73 112.517 85.67ZM95.5366 77.69C94.9166 77.79 94.4366 78.19 94.0966 78.89C93.7766 79.59 93.6066 80.58 93.5866 81.86C93.5866 83.14 93.7466 84.72 94.0666 86.6C94.4066 88.46 94.7966 90 95.2366 91.22C95.6766 92.42 96.1666 93.29 96.7066 93.83C97.2666 94.37 97.8466 94.59 98.4466 94.49C99.3866 94.31 99.9866 93.48 100.247 92C100.507 90.52 100.387 88.37 99.8866 85.55C99.4066 82.73 98.7866 80.67 98.0266 79.37C97.2866 78.07 96.4566 77.51 95.5366 77.69ZM133.867 100.34V99.74L133.027 99.89V79.67C133.027 78.91 132.827 78.31 132.427 77.87C132.047 77.43 131.527 77.21 130.867 77.21C130.307 77.21 129.827 77.36 129.427 77.66C129.027 77.96 128.827 78.37 128.827 78.89V82.13C128.827 83.71 128.277 84.98 127.177 85.94C126.077 86.88 124.537 87.35 122.557 87.35C120.997 87.35 119.797 86.99 118.957 86.27C118.137 85.55 117.727 84.52 117.727 83.18C117.727 81.92 118.277 80.67 119.377 79.43C120.497 78.17 122.177 77.12 124.417 76.28C126.677 75.44 129.497 75.02 132.877 75.02C136.977 75.02 140.027 75.78 142.027 77.3C144.047 78.82 145.057 80.94 145.057 83.66V98.18C145.057 98.6 145.147 98.93 145.327 99.17C145.527 99.41 145.817 99.53 146.197 99.53C146.517 99.53 146.797 99.43 147.037 99.23C147.277 99.03 147.467 98.77 147.607 98.45C147.707 98.33 147.807 98.23 147.907 98.15C148.027 98.07 148.157 98.03 148.297 98.03C148.557 98.03 148.737 98.12 148.837 98.3C148.957 98.48 149.017 98.71 149.017 98.99C149.017 99.73 148.717 100.55 148.117 101.45C147.537 102.35 146.637 103.13 145.417 103.79C144.217 104.43 142.677 104.75 140.797 104.75C138.637 104.75 136.937 104.33 135.697 103.49C134.477 102.63 133.867 101.58 133.867 100.34ZM116.437 97.73C116.437 95.11 117.597 93.04 119.917 91.52C122.237 90 125.677 89.24 130.237 89.24C131.337 89.24 132.257 89.33 132.997 89.51C133.757 89.67 134.397 89.91 134.917 90.23L134.137 92.03C133.697 91.79 133.277 91.62 132.877 91.52C132.497 91.42 132.067 91.37 131.587 91.37C130.647 91.37 129.897 91.74 129.337 92.48C128.797 93.22 128.527 94.32 128.527 95.78C128.527 97.22 128.797 98.3 129.337 99.02C129.897 99.74 130.627 100.1 131.527 100.1C132.067 100.1 132.587 99.96 133.087 99.68C133.587 99.38 133.967 99.02 134.227 98.6L134.857 100.28C133.937 101.72 132.607 102.83 130.867 103.61C129.147 104.37 127.297 104.75 125.317 104.75C122.677 104.75 120.537 104.09 118.897 102.77C117.257 101.43 116.437 99.75 116.437 97.73ZM164.34 87.68C164.34 84.82 164.73 82.45 165.51 80.57C166.31 78.69 167.36 77.29 168.66 76.37C169.96 75.43 171.36 74.96 172.86 74.96C174.82 74.96 176.32 75.57 177.36 76.79C178.4 77.99 178.92 79.81 178.92 82.25C178.92 84.71 178.4 86.53 177.36 87.71C176.32 88.87 174.98 89.45 173.34 89.45C171.74 89.45 170.55 89.04 169.77 88.22C168.99 87.38 168.59 86.2 168.57 84.68L168.54 83.45C168.52 82.97 168.41 82.59 168.21 82.31C168.03 82.03 167.72 81.89 167.28 81.89C166.88 81.89 166.53 82.08 166.23 82.46C165.93 82.82 165.69 83.41 165.51 84.23C165.35 85.03 165.27 86.11 165.27 87.47L164.34 87.68ZM164.7 76.97L165.27 84.26V99.08C165.27 99.64 165.36 100.05 165.54 100.31C165.72 100.57 166.09 100.76 166.65 100.88L169.14 101.39C169.58 101.47 169.9 101.62 170.1 101.84C170.3 102.04 170.4 102.33 170.4 102.71C170.4 103.11 170.26 103.43 169.98 103.67C169.7 103.89 169.29 104 168.75 104H152.22C151.66 104 151.25 103.89 150.99 103.67C150.73 103.43 150.6 103.12 150.6 102.74C150.6 102.44 150.68 102.18 150.84 101.96C151 101.74 151.25 101.57 151.59 101.45L152.4 101.15C152.68 101.05 152.88 100.86 153 100.58C153.12 100.3 153.18 99.85 153.18 99.23V82.64C153.18 82.16 153.11 81.81 152.97 81.59C152.83 81.37 152.62 81.23 152.34 81.17L151.44 81.02C151.14 80.94 150.92 80.81 150.78 80.63C150.64 80.43 150.57 80.19 150.57 79.91C150.57 79.57 150.66 79.3 150.84 79.1C151.04 78.88 151.4 78.68 151.92 78.5L160.02 75.95C161.02 75.57 161.74 75.32 162.18 75.2C162.64 75.08 163.01 75.02 163.29 75.02C163.71 75.02 164.03 75.18 164.25 75.5C164.47 75.8 164.62 76.29 164.7 76.97ZM198.262 100.34V99.74L197.422 99.89V79.67C197.422 78.91 197.222 78.31 196.822 77.87C196.442 77.43 195.922 77.21 195.262 77.21C194.702 77.21 194.222 77.36 193.822 77.66C193.422 77.96 193.222 78.37 193.222 78.89V82.13C193.222 83.71 192.672 84.98 191.572 85.94C190.472 86.88 188.932 87.35 186.952 87.35C185.392 87.35 184.192 86.99 183.352 86.27C182.532 85.55 182.122 84.52 182.122 83.18C182.122 81.92 182.672 80.67 183.772 79.43C184.892 78.17 186.572 77.12 188.812 76.28C191.072 75.44 193.892 75.02 197.272 75.02C201.372 75.02 204.422 75.78 206.422 77.3C208.442 78.82 209.452 80.94 209.452 83.66V98.18C209.452 98.6 209.542 98.93 209.722 99.17C209.922 99.41 210.212 99.53 210.592 99.53C210.912 99.53 211.192 99.43 211.432 99.23C211.672 99.03 211.862 98.77 212.002 98.45C212.102 98.33 212.202 98.23 212.302 98.15C212.422 98.07 212.552 98.03 212.692 98.03C212.952 98.03 213.132 98.12 213.232 98.3C213.352 98.48 213.412 98.71 213.412 98.99C213.412 99.73 213.112 100.55 212.512 101.45C211.932 102.35 211.032 103.13 209.812 103.79C208.612 104.43 207.072 104.75 205.192 104.75C203.032 104.75 201.332 104.33 200.092 103.49C198.872 102.63 198.262 101.58 198.262 100.34ZM180.832 97.73C180.832 95.11 181.992 93.04 184.312 91.52C186.632 90 190.072 89.24 194.632 89.24C195.732 89.24 196.652 89.33 197.392 89.51C198.152 89.67 198.792 89.91 199.312 90.23L198.532 92.03C198.092 91.79 197.672 91.62 197.272 91.52C196.892 91.42 196.462 91.37 195.982 91.37C195.042 91.37 194.292 91.74 193.732 92.48C193.192 93.22 192.922 94.32 192.922 95.78C192.922 97.22 193.192 98.3 193.732 99.02C194.292 99.74 195.022 100.1 195.922 100.1C196.462 100.1 196.982 99.96 197.482 99.68C197.982 99.38 198.362 99.02 198.622 98.6L199.252 100.28C198.332 101.72 197.002 102.83 195.262 103.61C193.542 104.37 191.692 104.75 189.712 104.75C187.072 104.75 184.932 104.09 183.292 102.77C181.652 101.43 180.832 99.75 180.832 97.73Z" fill="white"/>
</svg>
