<svg width="171" height="172" viewBox="0 0 171 172" fill="none" xmlns="http://www.w3.org/2000/svg">
<g opacity="0.5" clip-path="url(#clip0_248_2435)">
<path opacity="0.5" d="M108.18 65.061L49.4998 47.1334M28.8136 68.6002L85.7544 86.0804L129.278 45.38M99.1315 144.088L85.7411 86.0228M142.841 97.0955L132.213 51.0118C131.745 48.9919 130.755 47.1308 129.342 45.6151C127.928 44.0993 126.142 42.9823 124.161 42.3761L78.5696 28.6436C76.587 28.0368 74.4798 27.9631 72.4597 28.43C70.4396 28.8969 68.5779 29.8879 67.0617 31.3034L32.0974 63.6546C30.5827 65.0687 29.466 66.8567 28.8594 68.8393C28.2529 70.8219 28.1777 72.9293 28.6416 74.9501L39.2689 121.034C39.7369 123.054 40.7272 124.915 42.1405 126.431C43.5538 127.946 45.3404 129.063 47.321 129.669L92.9126 143.402C94.8952 144.009 97.0024 144.082 99.0225 143.616C101.043 143.149 102.904 142.158 104.421 140.742L139.385 108.391C140.9 106.977 142.016 105.189 142.623 103.206C143.229 101.224 143.304 99.1163 142.841 97.0955Z" stroke="#091A43" stroke-width="8" stroke-linecap="round" stroke-linejoin="round"/>
</g>
<defs>
<clipPath id="clip0_248_2435">
<rect width="141.736" height="141.88" fill="white" transform="matrix(0.974315 -0.225191 0.224711 0.974425 0.751953 32.8562)"/>
</clipPath>
</defs>
</svg>
