<svg width="291" height="292" viewBox="0 0 291 292" fill="none" xmlns="http://www.w3.org/2000/svg">
<g clip-path="url(#clip0_136_3105)">
<path fill-rule="evenodd" clip-rule="evenodd" d="M215.586 87.3751C204.138 72.6153 182.519 56.0153 158.565 50.9171L161.9 35.3373C190.214 41.3792 214.893 60.5109 228.165 77.6123C231.526 81.9423 234.308 86.3238 236.238 90.531C238.121 94.6188 239.462 99.0939 239.307 103.447C239.297 105.939 238.652 108.388 237.433 110.562C236.214 112.735 234.46 114.562 232.339 115.87C228.075 118.473 222.842 118.793 217.789 118.16C205.734 116.611 190.851 110.379 176.135 103.643C171.636 101.572 167.125 99.4717 162.6 97.3417C152.136 92.2817 141.521 87.5409 130.768 83.1259C115.889 77.2225 103.731 74.1359 95.2388 75.2182C91.3012 75.7123 88.573 77.0615 86.5816 79.1579C84.5137 81.34 82.54 85.0284 81.5716 91.452C78.6751 110.375 85.1691 132.377 97.0534 152.949C106.21 151.608 115.469 151.092 124.718 151.407C155.795 152.173 180.188 165.947 191.665 182.28C197.373 190.396 200.472 200.127 197.816 209.375C195.048 219.014 186.796 225.531 175.367 228.494C167.964 230.413 159.977 229.258 152.352 226.51C144.653 223.733 136.722 219.172 128.989 213.407C114.908 202.902 100.858 187.945 89.5316 171.047C84.5835 172.659 80.9144 174.696 78.3992 176.994C75.2819 179.827 73.5618 183.351 73.4686 188.198C73.3629 193.377 75.1284 200.442 80.0946 209.82C85.0408 219.122 92.8854 230.207 104.248 243.244L92.251 253.728C80.3809 240.131 71.7274 228.022 66.0152 217.289C60.3653 206.606 57.3739 196.781 57.5363 187.884C57.5449 183.607 58.4501 179.38 60.1935 175.475C61.9369 171.57 64.4797 168.073 67.6579 165.212C71.615 161.712 76.1829 158.971 81.1329 157.126C69.4966 135.732 62.3885 111.552 65.8221 89.0496C67.1235 80.4822 70.0723 73.3807 75.0279 68.1785C80.0601 62.8906 86.4602 60.2768 93.2311 59.4103C106.136 57.7602 121.708 62.3978 136.642 68.3201C147.461 72.5931 158.92 78.0007 169.886 83.1574C174.299 85.2395 178.592 87.2375 182.764 89.1516C197.803 96.0507 210.554 101.173 219.797 102.348C220.978 102.537 222.181 102.557 223.368 102.41C223.139 100.587 222.597 98.8179 221.765 97.1799C220.073 93.6939 218.001 90.4057 215.586 87.3751ZM106.732 167.806C116.322 180.99 127.54 192.451 138.516 200.634C145.374 205.753 151.921 209.421 157.733 211.519C163.606 213.602 168.145 213.906 171.369 213.071C179.219 211.035 181.759 207.562 182.502 204.967C183.357 201.98 182.709 197.259 178.636 191.451C170.548 179.935 151.241 168.003 124.323 167.344C118.45 167.174 112.572 167.33 106.716 167.81" fill="white"/>
</g>
<defs>
<clipPath id="clip0_136_3105">
<rect width="239" height="239" fill="white" transform="translate(231.352) rotate(75.4665)"/>
</clipPath>
</defs>
</svg>
