<svg width="310" height="310" viewBox="0 0 310 310" fill="none" xmlns="http://www.w3.org/2000/svg">
<path d="M276.376 256.719C288.444 242.06 292.075 223.892 282.731 214.681C271.051 203.133 256.137 214.42 236.154 232.849C217.21 249.971 210.08 255.938 207.866 253.608C205.668 251.659 209.82 245.559 232.389 220.006C260.937 187.306 274.04 167.716 258.861 152.404C242.774 136.444 220.067 155.52 186.465 186.393C162.85 208.065 139.494 231.675 129.635 221.822C122.76 214.941 131.324 203.914 166.094 163.951C214.099 108.816 239.918 69.6282 220.067 49.7771C200.996 30.7066 181.272 47.3138 119.649 98.043C71.7649 137.358 45.4316 153.444 25.4532 163.431C20.0005 166.42 17.9246 171.48 20.0005 176.667C22.3366 181.726 28.1767 183.415 34.1442 180.298C55.2907 169.791 84.2258 151.496 131.584 112.707C183.869 69.6282 198.012 56.265 206.316 64.7014C216.695 74.948 192.953 105.179 152.083 151.236C107.448 201.71 96.8085 221.556 114.329 239.076C134.568 259.315 163.237 233.236 198.4 201.057C225.907 175.886 240.178 162.529 245.11 167.583C250.164 172.775 237.454 186.659 211.243 217.017C187.373 244.784 182.313 258.922 192.82 269.434C202.679 279.293 217.991 272.811 239.397 253.735C256.912 238.29 265.997 228.824 267.812 230.773C269.628 232.589 266.644 239.724 260.417 246.079C256.392 250.104 256.912 256.071 260.937 260.223C265.089 263.987 271.444 263.074 276.376 256.719Z" fill="white"/>
</svg>
